<svg width="326" height="270" viewBox="0 0 326 270" fill="none" xmlns="http://www.w3.org/2000/svg">
<path fill-rule="evenodd" clip-rule="evenodd" d="M287.361 54.314L120.414 79.3179C119.116 79.5124 117.868 79.9608 116.742 80.6375C115.617 81.3143 114.636 82.206 113.855 83.2619C113.074 84.3178 112.509 85.5172 112.191 86.7915C111.874 88.0658 111.811 89.3902 112.005 90.6889L136.991 257.621C137.384 260.244 138.802 262.604 140.935 264.181C143.067 265.758 145.738 266.423 148.361 266.03L315.308 241.026C317.931 240.633 320.291 239.215 321.868 237.082C323.445 234.95 324.11 232.278 323.718 229.655L298.731 62.7226C298.537 61.4238 298.089 60.1761 297.412 59.0507C296.735 57.9252 295.844 56.9441 294.788 56.1633C293.732 55.3824 292.533 54.8172 291.259 54.4999C289.984 54.1826 288.66 54.1194 287.361 54.314Z" fill="#5E7287"/>
<path fill-rule="evenodd" clip-rule="evenodd" d="M61.4851 26.5373C59.2271 26.3551 56.974 26.9449 55.0948 28.2102C53.2157 29.4756 51.8218 31.3414 51.1414 33.5021L0.461712 194.506C0.0672767 195.759 -0.0765697 197.077 0.0383871 198.385C0.153344 199.693 0.524848 200.966 1.13169 202.13C1.73854 203.295 2.56884 204.328 3.57519 205.172C4.58154 206.016 5.74423 206.653 6.99687 207.047L168.022 257.719C170.552 258.515 173.295 258.273 175.646 257.047C177.998 255.821 179.767 253.712 180.563 251.182L231.243 90.1779C231.637 88.9253 231.781 87.6073 231.666 86.2992C231.551 84.991 231.18 83.7183 230.573 82.5538C229.966 81.3893 229.136 80.3557 228.129 79.512C227.123 78.6684 225.96 78.0312 224.708 77.6369L63.6824 26.965C62.9683 26.7407 62.2313 26.5972 61.4851 26.5373ZM13.7469 109.629C13.7509 109.63 13.7539 109.631 13.7569 109.631C13.7499 109.64 13.7539 109.636 13.7469 109.629ZM11.4754 110.494C11.4704 110.492 11.4857 110.496 11.491 110.498C11.486 110.497 11.481 110.496 11.4754 110.494Z" fill="#7E969A"/>
<path fill-rule="evenodd" clip-rule="evenodd" d="M222.087 38.5543L59.788 84.9817C58.5254 85.3429 57.3464 85.9492 56.3181 86.7661C55.2898 87.583 54.4324 88.5944 53.7949 89.7425C53.1575 90.8907 52.7524 92.1532 52.6028 93.4579C52.4532 94.7626 52.5621 96.084 52.9231 97.3466L99.3314 259.634C100.061 262.183 101.773 264.339 104.091 265.626C106.41 266.914 109.145 267.227 111.695 266.498L273.994 220.07C276.544 219.341 278.7 217.628 279.987 215.31C281.275 212.991 281.588 210.255 280.859 207.705L234.451 45.4186C234.09 44.156 233.484 42.9768 232.667 41.9486C231.85 40.9203 230.839 40.063 229.691 39.4255C228.543 38.7881 227.28 38.3831 225.976 38.2336C224.671 38.0841 223.35 38.1931 222.087 38.5543Z" fill="#C2A3A3"/>
<path fill-rule="evenodd" clip-rule="evenodd" d="M234.686 63.061L68.1885 35.2191C66.8933 35.0025 65.568 35.0432 64.2884 35.3387C63.0089 35.6343 61.8 36.179 60.7309 36.9417C59.6618 37.7044 58.7534 38.6702 58.0575 39.7839C57.3616 40.8976 56.892 42.1375 56.6752 43.4327L28.8212 209.911C28.3835 212.526 29.003 215.209 30.5432 217.368C32.0834 219.527 34.4182 220.985 37.0341 221.423L203.531 249.265C206.147 249.702 208.83 249.083 210.989 247.542C213.148 246.002 214.607 243.667 215.044 241.051L242.899 74.5732C243.336 71.9574 242.717 69.275 241.177 67.116C239.636 64.9571 237.302 63.4984 234.686 63.061Z" fill="#2A5B6F"/>
<path fill-rule="evenodd" clip-rule="evenodd" d="M247.897 11.8352L80.3651 32.5594C77.733 32.885 75.338 34.2429 73.7069 36.3343C72.0757 38.4257 71.3422 41.0794 71.6675 43.7115L92.3746 211.229C92.6999 213.861 94.0576 216.256 96.1488 217.887C98.2401 219.518 100.894 220.251 103.526 219.925L271.058 199.201C273.69 198.876 276.085 197.518 277.716 195.426C279.347 193.335 280.081 190.681 279.755 188.049L259.048 20.532C258.723 17.8999 257.365 15.5049 255.274 13.8739C253.183 12.243 250.529 11.5096 247.897 11.8352Z" fill="#B6C8C5"/>
<path d="M125.018 0.000271358C125.019 0.0145714 125.02 0.0288706 125.022 0.0432706C125.032 0.0412706 125.039 0.0382609 125.046 0.0332609C125.04 0.0220609 125.033 0.0111577 125.026 5.7735e-05C125.023 -0.000142265 125.021 0.000257735 125.018 5.7735e-05L125.018 0.000271358ZM125.038 0.08038C125.042 0.08058 125.047 0.0823636 125.052 0.0823636V0.08038C125.047 0.0804 125.043 0.08038 125.038 0.08038ZM126.239 2.4046C125.671 2.54719 125.101 2.67723 124.522 2.77179C124.432 2.78649 124.341 2.79168 124.251 2.80108C124.091 2.79508 123.91 2.86188 123.772 2.78158C123.753 2.77038 123.735 2.75867 123.718 2.74447C123.628 2.76357 123.538 2.77388 123.444 2.76788C123.19 2.75188 123.188 2.76488 123.108 2.72488C123.046 2.73588 122.983 2.74576 122.921 2.75216C122.844 2.76016 122.766 2.75216 122.688 2.75216H121.901C121.901 2.75116 121.901 2.74917 121.901 2.74817C121.897 2.74917 121.892 2.74918 121.887 2.75018V2.75216C121.888 2.75416 121.882 2.75285 121.879 2.75216C121.882 2.75177 121.884 2.75118 121.887 2.75018C121.887 2.73058 121.882 2.70968 121.879 2.68768C121.838 2.69068 121.794 2.69368 121.753 2.69568C121.766 2.72668 121.79 2.74669 121.831 2.75229H121.878C121.87 2.7532 121.862 2.75427 121.854 2.75427C121.845 2.75427 121.838 2.75339 121.831 2.75229H121.796H121.563H121.551C121.565 2.76969 121.578 2.78656 121.59 2.80496C121.61 2.83456 121.584 2.88346 121.54 2.93777C121.53 3.03017 121.518 3.1226 121.518 3.21316C121.398 3.31438 121.283 3.3721 121.135 3.44168C121.081 3.46718 121.027 3.4942 120.969 3.5101C120.836 3.5472 120.756 3.56418 120.678 3.57458C120.605 3.60358 120.525 3.62808 120.432 3.65268C120.349 3.67458 120.257 3.63679 120.174 3.66269C120.076 3.65969 119.98 3.6597 119.897 3.6315L3.3463 98.569L4.79356 100.29C4.85436 100.26 4.93042 100.24 5.02208 100.233C5.08268 100.228 5.14318 100.222 5.20372 100.217C5.24622 100.178 5.29692 100.144 5.33849 100.114C5.35099 100.106 5.35898 100.101 5.36578 100.098C5.38348 100.092 5.39129 100.109 5.43419 100.167C5.43324 100.154 5.43219 100.142 5.42819 100.13C5.42619 100.122 5.41029 100.126 5.40669 100.118C5.42929 100.112 5.45028 100.114 5.47308 100.114C5.51498 100.114 5.55819 100.114 5.60004 100.114C5.61214 100.117 5.65344 100.11 5.66254 100.114C5.71474 100.138 5.73253 100.15 5.75433 100.178C5.87478 100.112 6.00719 100.051 6.09615 100.079C6.10755 100.083 6.11643 100.092 6.12733 100.096C6.18313 100.091 6.23989 100.093 6.29726 100.094H6.50038H6.83827H6.97694C6.93594 100.013 6.99634 99.9077 7.15663 99.8972C7.16563 99.8967 7.17494 99.8972 7.18394 99.8972H7.19763H7.30702H7.49452H7.84023H8.17812H8.60583C8.65953 99.8226 8.70966 99.7441 8.77773 99.6843C8.81883 99.6572 8.83312 99.6504 8.83832 99.6472C8.83865 99.6452 8.83331 99.6402 8.85391 99.6023C8.89191 99.5331 8.91911 99.4994 8.96719 99.4344C9.03819 99.346 9.12568 99.2987 9.22891 99.2918C9.26941 99.2888 9.31212 99.2938 9.35783 99.3035C9.34403 99.3025 9.32873 99.3037 9.31483 99.3015C9.39783 99.3374 9.48523 99.3662 9.56483 99.4089C9.58423 99.4195 9.59273 99.4426 9.60783 99.4577C9.63723 99.4893 9.66303 99.5336 9.69963 99.569C9.79033 99.5416 9.87936 99.5123 9.96916 99.4792C10.0114 99.4636 10.1876 99.3902 10.266 99.3874C10.271 99.3872 10.275 99.3869 10.2797 99.3874C10.3516 99.3964 10.4162 99.435 10.4848 99.4577C10.5903 99.554 10.7045 99.7114 10.7211 99.8542C10.7301 99.929 10.7025 100.003 10.6879 100.077C10.7232 100.137 10.7659 100.212 10.8188 100.305C10.8453 100.353 10.7541 100.394 10.7133 100.428C10.6548 100.479 10.3832 100.644 10.2622 100.717C10.1027 100.914 9.9282 101.099 9.74265 101.272C9.73665 101.277 9.73124 101.283 9.72504 101.288C9.70274 101.306 9.67804 101.323 9.66454 101.348C9.65554 101.363 9.70934 101.318 9.71724 101.333C9.72774 101.354 9.66834 101.498 9.63914 101.569C9.64964 101.54 9.63964 101.556 9.62744 101.54C9.62661 101.563 9.6278 101.587 9.62544 101.606C9.61544 101.746 9.58694 101.781 9.45552 101.887C9.44852 101.896 9.40531 101.928 9.39691 101.938L9.39491 101.94C9.39991 101.944 9.41162 101.93 9.41252 101.938C9.42152 101.994 9.37552 101.951 9.41452 101.981C9.43452 102.121 9.38402 102.25 9.311 102.364C9.317 102.474 9.315 102.612 9.313 102.632C9.2856 102.801 9.15347 102.9 8.99855 102.934C8.99055 102.936 8.98334 102.938 8.97514 102.938H8.97314C8.96714 102.939 8.95375 102.942 8.95755 102.946C8.96555 102.956 8.99325 102.947 8.99275 102.958C8.99175 102.982 8.97034 103.002 8.95564 103.021C8.93604 103.046 8.91374 103.07 8.89314 103.095C8.7727 103.531 8.65254 103.615 8.36775 103.937C8.24672 103.996 8.14358 104.049 8.0455 104.085C8.0351 104.099 8.0248 104.114 8.0143 104.128L9.06117 105.372C9.07747 105.372 9.09367 105.372 9.10997 105.372C9.3216 105.368 9.53384 105.369 9.74474 105.388V105.386C9.77304 105.389 9.79954 105.393 9.82484 105.397C9.86664 105.351 9.90994 105.303 9.98695 105.298C10.078 105.292 10.1896 105.322 10.3112 105.401C10.3662 105.438 10.4297 105.461 10.4752 105.509C10.5639 105.601 10.6632 105.727 10.7389 105.858C10.8885 105.853 11.0404 106 11.0397 106.296C11.0397 106.297 11.0397 106.298 11.0397 106.3C11.0397 106.342 11.0402 106.383 11.0397 106.425C11.039 106.539 11.0395 106.651 11.0417 106.765C11.0408 106.87 11.0447 106.851 11.0397 106.937C11.039 106.949 11.0367 106.961 11.0357 106.974C11.0356 106.976 11.0358 106.978 11.0357 106.98C11.0362 106.986 11.0356 106.992 11.0357 106.997C11.0362 107.019 11.0355 107.041 11.0317 107.064V107.066C11.0337 107.076 11.0377 107.086 11.0397 107.095C11.0597 107.2 11.0587 107.179 11.0709 107.271C11.0739 107.291 11.0739 107.312 11.0789 107.331C11.0962 107.406 11.1354 107.478 11.1433 107.556C11.161 107.671 11.1744 107.769 11.1667 107.88L12.3561 109.294C12.3782 109.298 12.4004 109.302 12.4225 109.306C12.4725 109.314 12.5224 109.328 12.5729 109.331C12.6572 109.339 12.7422 109.339 12.8268 109.343C13.0464 109.343 13.0204 109.344 13.2565 109.335C13.3514 109.331 13.4449 109.325 13.5397 109.327C13.558 109.327 13.5761 109.332 13.5944 109.331C13.7639 109.461 13.7265 109.387 13.7643 109.48C13.8256 109.514 13.8561 109.584 13.9147 109.622C13.9486 109.643 14.0065 109.648 14.0475 109.646C14.2153 109.633 14.2637 109.625 14.4265 109.606C14.6872 109.584 14.9485 109.583 15.2097 109.591C15.3299 109.595 15.3889 109.596 15.5046 109.622C15.5308 109.63 15.5558 109.64 15.5808 109.651C15.6114 109.68 15.6458 109.705 15.6726 109.739C15.6892 109.759 15.698 109.785 15.7097 109.808C15.7224 109.833 15.7221 109.857 15.7253 109.88C15.7303 109.885 15.7353 109.891 15.739 109.897C15.7555 109.924 15.7658 109.949 15.7702 109.974C15.7782 109.989 15.7861 110.003 15.7936 110.019C15.7942 110.02 15.794 110.022 15.7956 110.023L131.475 15.798C131.437 15.724 131.417 15.6923 131.421 15.6066C131.421 15.5524 131.421 15.4987 131.421 15.4445C131.421 15.4151 131.42 15.4027 131.423 15.4015C131.41 15.3369 131.41 15.2756 131.433 15.2159C131.433 15.2149 131.432 15.2129 131.433 15.2119C131.443 15.1126 131.506 15.0223 131.589 14.9424C131.634 14.8969 131.63 14.9031 131.671 14.8682C131.704 14.8086 131.744 14.7551 131.796 14.71C131.85 14.6562 131.901 14.6001 131.958 14.5498C131.973 14.5367 131.982 14.5286 131.987 14.5244C132.005 14.4816 131.976 14.5284 132.073 14.4209V14.4189C132.074 14.4169 132.076 14.4119 132.077 14.4109C132.078 14.4099 132.08 14.4089 132.081 14.4069C132.093 14.3871 132.117 14.3462 132.118 14.3444C132.128 14.3264 132.138 14.3087 132.149 14.2917C132.162 14.2737 132.203 14.2198 132.235 14.1882C132.245 14.1742 132.253 14.1594 132.263 14.1452L132.267 14.1412C132.267 14.1402 132.267 14.1382 132.269 14.1372C132.272 14.1332 132.274 14.1292 132.277 14.1255C132.279 14.1245 132.281 14.1195 132.283 14.1175H132.285C132.298 14.0989 132.281 14.1177 132.328 14.0648C132.344 14.0494 132.359 14.0335 132.376 14.0199C132.41 13.9938 132.446 13.9695 132.482 13.9457C132.483 13.9449 132.484 13.946 132.486 13.9457C132.518 13.9138 132.546 13.8791 132.58 13.85C132.583 13.841 132.586 13.8393 132.63 13.7699C132.631 13.7679 132.633 13.7659 132.634 13.7639C132.643 13.7501 132.653 13.7365 132.666 13.717C132.66 13.724 132.653 13.7296 132.648 13.7365C132.662 13.7077 132.678 13.6788 132.697 13.6525C132.775 13.5624 132.744 13.5821 132.849 13.5177C132.868 13.5059 132.891 13.4989 132.912 13.4903C132.952 13.4494 132.998 13.4158 133.052 13.3927C133.072 13.3815 133.108 13.3624 133.14 13.3458C133.143 13.3285 133.148 13.3171 133.152 13.297C133.152 13.2962 133.321 13.1333 133.349 13.1076C133.413 13.0587 133.477 13.0033 133.552 12.9709C133.554 12.9699 133.558 12.9679 133.56 12.9669L133.562 12.9649H133.564C133.569 12.9629 133.576 12.9609 133.582 12.9589C133.585 12.9579 133.591 12.9559 133.596 12.9549H133.598C133.631 12.9283 133.659 12.9196 133.75 12.9139C133.762 12.9131 133.782 12.9159 133.801 12.9199C133.803 12.9198 133.808 12.92 133.814 12.9199C133.823 12.9197 133.833 12.9199 133.842 12.9199C133.882 12.8243 133.923 12.7203 134.006 12.664L134.012 12.656L134.014 12.654C134.084 12.5902 134.181 12.5629 134.274 12.5427C134.423 12.514 134.145 12.5694 134.387 12.5056C134.449 12.4892 134.508 12.4822 134.569 12.4802C134.582 12.4554 134.596 12.4329 134.61 12.4079C134.646 12.34 134.705 12.2913 134.758 12.2379C134.757 12.2077 134.757 12.1784 134.758 12.1482C134.759 12.1221 134.76 12.0958 134.764 12.0701C134.776 11.9829 134.783 12.0356 134.77 11.9763C134.767 11.876 134.776 11.7719 134.813 11.6775C134.843 11.6007 134.887 11.5301 134.928 11.4588C134.932 11.4518 134.942 11.4449 134.94 11.4373C134.938 11.4303 134.932 11.4507 134.926 11.4549C134.923 11.4569 134.927 11.4459 134.928 11.4432C134.943 11.4032 134.958 11.3634 134.975 11.324C134.991 11.2862 135.02 11.2357 135.04 11.199C135.043 11.193 135.047 11.1874 135.05 11.1814L133.313 9.11306C133.308 9.1128 133.305 9.11329 133.3 9.11306C133.229 9.10806 133.158 9.11369 133.087 9.11508C133.053 9.1144 133.068 9.11306 133.046 9.11306C132.978 9.11207 132.918 9.10406 132.866 9.08966C132.815 9.10526 132.764 9.12239 132.714 9.13849C132.655 9.15309 132.597 9.16938 132.538 9.18149C132.374 9.21549 132.206 9.21737 132.04 9.21667C131.888 9.21619 131.734 9.20607 131.583 9.21667C131.569 9.21767 131.374 9.23307 131.36 9.23227C131.294 9.22827 131.228 9.22096 131.163 9.20886C131.141 9.20486 131.123 9.19567 131.102 9.18738C130.993 9.14227 131.025 9.15468 130.923 9.09948C130.855 9.03748 130.811 8.99945 130.778 8.97055L130.776 8.96655C130.775 8.96594 130.773 8.96581 130.772 8.96457C130.757 8.95757 130.742 8.95167 130.727 8.94507C130.697 8.93187 130.665 8.91847 130.634 8.90597C130.408 8.81177 130.187 8.7089 129.989 8.56222C129.776 8.38716 129.688 8.32753 129.602 8.03878C129.591 8.00068 129.601 7.95888 129.608 7.91964C129.632 7.76337 129.65 7.73401 129.702 7.59152C129.753 7.45132 129.828 7.36084 129.907 7.31222C129.944 7.17527 130.023 6.96891 130.048 6.91769C130.093 6.82469 130.145 6.73475 130.202 6.64816C130.394 6.357 130.399 6.34086 130.507 6.24191C130.513 6.14021 130.523 6.03798 130.563 5.94503C130.573 5.92303 130.584 5.90233 130.596 5.88253L128.483 3.36886C128.479 3.36898 128.477 3.36878 128.473 3.36886C128.29 3.43086 128.087 3.4747 127.903 3.49777C127.709 3.52187 127.51 3.47215 127.317 3.49975C127.185 3.49575 126.971 3.49276 126.854 3.46066C126.708 3.42016 126.637 3.26297 126.616 3.12668C126.591 3.04368 126.594 3.05417 126.559 2.95675C126.553 2.93865 126.525 2.90694 126.536 2.90014C126.361 2.84164 126.154 2.75089 126.383 2.73608C126.34 2.62597 126.291 2.51239 126.241 2.40405L126.239 2.4046ZM133.552 12.971C133.542 12.9822 133.521 13.0059 133.466 13.0647C133.488 13.0464 133.505 13.0317 133.52 13.0178C133.527 13.0037 133.541 12.9832 133.552 12.9709V12.971ZM132.081 14.4066L132.077 14.4145C132.083 14.4075 132.089 14.3992 132.096 14.3911C132.091 14.3961 132.086 14.4011 132.081 14.4067L132.081 14.4066ZM121.88 2.6878C121.887 2.68737 121.894 2.68824 121.901 2.6878C121.904 2.6444 121.91 2.59668 121.919 2.54715C121.895 2.54415 121.871 2.54315 121.848 2.53915C121.862 2.59165 121.873 2.64178 121.88 2.68759V2.6878ZM121.901 2.6878C121.9 2.7091 121.9 2.72929 121.901 2.74829C121.935 2.73779 121.956 2.71438 121.97 2.68188C121.947 2.68388 121.924 2.68589 121.901 2.68789V2.6878ZM127.7 3.16241C127.69 3.16941 127.68 3.17581 127.669 3.18191C127.69 3.19771 127.713 3.21309 127.737 3.22879C127.725 3.20679 127.711 3.18401 127.7 3.16241H127.7ZM130.632 7.7796C130.633 7.7816 130.635 7.78358 130.636 7.78558C130.636 7.78358 130.638 7.7816 130.638 7.7796C130.636 7.77906 130.634 7.78013 130.632 7.7796ZM130.184 7.99054C130.182 8.00524 130.178 8.01963 130.176 8.03933C130.176 8.04133 130.181 8.04533 130.182 8.04333C130.189 8.03273 130.189 8.01382 130.194 8.00232C130.19 7.99832 130.188 7.99433 130.184 7.99063L130.184 7.99054ZM130.466 8.1839C130.482 8.1929 130.498 8.20237 130.514 8.21127C130.513 8.20827 130.514 8.20527 130.51 8.20327C130.496 8.19527 130.481 8.19017 130.466 8.18377L130.466 8.1839ZM131.665 14.8792C131.662 14.8832 131.658 14.8872 131.657 14.8892C131.655 14.8932 131.653 14.8982 131.651 14.9029C131.655 14.8949 131.661 14.8873 131.665 14.8795L131.665 14.8792ZM5.31523 100.139C5.3143 100.135 5.31123 100.145 5.31323 100.147C5.31423 100.148 5.31723 100.147 5.31923 100.149C5.31823 100.146 5.31623 100.143 5.31523 100.139ZM5.69804 100.178C5.68904 100.181 5.65904 100.201 5.65314 100.215C5.66694 100.203 5.68484 100.194 5.69804 100.182C5.70104 100.178 5.70104 100.177 5.69804 100.178V100.178ZM9.13748 101.719C9.13548 101.72 9.13348 101.719 9.13148 101.721C9.13448 101.726 9.1375 101.733 9.1395 101.735L9.14149 101.733C9.14049 101.729 9.13848 101.724 9.13748 101.719ZM10.3602 106.512L10.3582 106.514C10.3578 106.516 10.3586 106.518 10.3582 106.52C10.3588 106.517 10.3587 106.515 10.3602 106.512ZM11.0535 107.725C11.0536 107.732 11.0532 107.738 11.0535 107.744L11.0575 107.748C11.0576 107.74 11.0571 107.732 11.0555 107.727L11.0535 107.725ZM11.0789 107.756C11.0839 107.767 11.0889 107.776 11.0926 107.783C11.0956 107.787 11.0896 107.771 11.0866 107.764C11.0846 107.761 11.0806 107.759 11.0786 107.756L11.0789 107.756ZM13.7469 109.629C13.7509 109.63 13.7539 109.631 13.7569 109.631C13.7499 109.64 13.7539 109.636 13.7469 109.629ZM11.4754 110.494C11.4704 110.492 11.4857 110.496 11.491 110.498C11.486 110.497 11.481 110.496 11.4754 110.494Z" fill="#F6D7A7" fill-opacity="0.75"/>
<path d="M95.618 143.627C95.1266 143.695 94.6805 143.485 94.2798 142.998C94.0003 142.786 93.7887 142.46 93.6449 142.021C93.5476 141.617 93.5868 140.84 93.7624 139.689C93.9324 138.498 94.246 136.682 94.7032 134.241C94.8987 132.628 95.0715 131.457 95.2215 130.727C95.3659 129.956 95.4156 129.407 95.3706 129.08C95.3086 128.629 95.2989 128.255 95.3414 127.957C95.4192 127.613 95.4385 127.297 95.3991 127.01C95.6447 126.977 95.8595 126.718 96.0432 126.233C96.227 125.749 96.3473 125.107 96.4042 124.306C96.4723 123.588 96.5396 123.015 96.6062 122.589C96.708 122.116 96.7477 121.798 96.7252 121.634C96.8849 121.278 97.0193 120.738 97.1284 120.014C97.2784 119.284 97.5315 118.394 97.8878 117.343C98.0465 116.07 98.2406 114.75 98.4699 113.383C98.6937 111.976 98.9315 110.671 99.1834 109.468C99.4705 108.218 99.7124 107.246 99.909 106.552C100.185 105.22 100.412 104.292 100.59 103.767C100.763 103.201 100.715 102.853 100.447 102.723C100.132 102.557 100.023 102.218 100.119 101.704C100.215 101.19 100.59 100.575 101.242 99.8598C101.619 99.2656 101.958 98.8436 102.257 98.5938C102.551 98.3031 102.944 98.1239 103.435 98.0564C103.967 97.9832 104.73 97.92 105.724 97.8669C106.467 97.8065 107.248 97.72 108.067 97.6074C108.927 97.4892 109.459 97.4161 109.664 97.3879C110.055 97.5011 110.531 97.6234 111.091 97.755C111.646 97.8456 112.14 97.9447 112.572 98.0522C113.044 98.154 113.289 98.2664 113.306 98.3892C113.34 98.6349 113.444 98.7875 113.62 98.8469C113.83 98.8597 114.04 98.8725 114.251 98.8853C114.537 98.8459 114.957 99.0176 115.511 99.4005C116.058 99.7424 116.643 100.204 117.266 100.786C117.882 101.327 118.382 101.926 118.764 102.583C119.187 103.234 119.523 103.856 119.771 104.447C120.061 105.033 120.182 105.914 120.135 107.088C120.178 107.708 120.16 108.337 120.081 108.973C120.042 109.604 119.955 110.034 119.82 110.261C119.596 110.458 119.399 110.694 119.228 110.968C119.057 111.242 118.986 111.481 119.014 111.686C119.037 111.85 118.938 112.197 118.719 112.728C118.495 113.218 118.199 113.8 117.833 114.477C117.467 115.153 117.06 115.835 116.612 116.522C116.164 117.209 115.726 117.812 115.296 118.33C114.854 119.058 114.304 119.76 113.646 120.434C113.028 121.103 112.458 121.662 111.936 122.109C110.938 122.747 109.819 123.401 108.576 124.073C107.374 124.739 106.202 125.317 105.059 125.808C103.958 126.293 103.015 126.569 102.232 126.635C101.067 126.962 100.311 127.232 99.965 127.447C99.6543 127.615 99.4565 127.996 99.3715 128.592C99.2399 129.153 99.1111 129.734 98.9852 130.335C98.8946 130.89 98.8633 131.27 98.8915 131.474C98.8321 131.649 98.6977 132.189 98.4883 133.094C98.3143 133.953 98.119 134.96 97.9024 136.116C97.7268 137.267 97.5484 138.397 97.3671 139.507C97.1859 140.617 97.0612 141.531 96.9931 142.249C96.9081 142.845 96.7484 143.201 96.514 143.317C96.2852 143.473 95.9865 143.577 95.618 143.627ZM100.617 123.54C100.803 123.681 101.441 123.614 102.53 123.339C103.618 123.064 104.764 122.594 105.965 121.928C106.745 121.529 107.516 121.068 108.279 120.546C109.082 120.019 109.839 119.456 110.55 118.857C110.92 118.514 111.464 117.918 112.181 117.068C112.899 116.219 113.597 115.226 114.275 114.09C114.37 113.868 114.521 113.451 114.729 112.838C114.972 112.179 115.18 111.566 115.353 111C115.642 110.376 115.896 109.486 116.112 108.33C116.323 107.133 116.275 106.179 115.969 105.471C115.618 104.434 114.951 103.524 113.967 102.742C112.978 101.918 111.867 101.424 110.634 101.26C109.711 101.22 108.942 101.242 108.328 101.327C107.755 101.405 107.128 101.554 106.449 101.773C105.822 102.067 105.37 102.422 105.093 102.835C104.857 103.243 104.575 104.075 104.247 105.33C104.039 105.942 103.751 106.879 103.382 108.14C103.007 109.359 102.706 110.506 102.478 111.581C102.112 114.385 101.682 116.718 101.187 118.58C100.727 120.395 100.446 121.539 100.344 122.012C100.447 122.457 100.472 122.788 100.418 123.004C100.359 123.179 100.425 123.357 100.617 123.54ZM132.406 133.376C131.647 134.232 130.703 134.799 129.573 135.08C128.484 135.355 127.377 135.34 126.25 135.036C125.118 134.691 124.136 134.075 123.305 133.188C122.485 132.383 121.894 131.421 121.532 130.302C121.164 129.143 120.932 127.61 120.837 125.704C120.74 124.09 121.033 122.423 121.714 120.702C122.39 118.94 123.275 117.338 124.37 115.894C125.506 114.444 126.675 113.386 127.876 112.721C128.434 112.227 128.921 111.972 129.336 111.957C129.786 111.895 130.468 111.843 131.38 111.801C132.339 111.794 133.06 111.883 133.544 112.067C134.069 112.245 134.503 112.519 134.846 112.889C135.545 113.419 136.039 113.977 136.328 114.563C136.612 115.108 136.793 115.667 136.872 116.24C136.832 117.164 136.369 118.354 135.485 119.811C134.636 121.221 133.428 122.451 131.862 123.5C131 123.911 130.034 124.169 128.964 124.274C127.894 124.38 126.977 124.234 126.213 123.839C125.39 123.618 124.887 123.75 124.703 124.234C124.513 124.677 124.429 125.732 124.449 127.398C124.499 128.977 124.78 130.106 125.291 130.787C125.796 131.427 126.405 131.76 127.118 131.788C127.959 131.839 128.611 131.874 129.073 131.894C129.57 131.868 130.138 131.602 130.778 131.097C131.377 130.597 131.755 130.316 131.913 130.252C132.066 130.148 132.178 130.049 132.248 129.956C132.354 129.816 132.584 129.513 132.937 129.048C133.184 128.722 133.381 128.486 133.528 128.34C133.669 128.154 133.842 128.047 134.047 128.019C134.252 127.991 134.45 128.068 134.642 128.25C134.829 128.391 135.009 128.492 135.184 128.551C135.594 128.495 135.709 128.729 135.531 129.254C135.394 129.774 135.046 130.427 134.486 131.213C133.921 131.958 133.228 132.679 132.406 133.376ZM130.554 120.363C130.976 120.096 131.408 119.745 131.849 119.309C132.284 118.832 132.634 118.346 132.9 117.85C133.201 117.308 133.329 116.873 133.284 116.546C133.205 115.973 132.874 115.538 132.291 115.243C131.702 114.907 130.896 114.955 129.87 115.388C129.437 115.573 128.967 115.95 128.461 116.52C127.95 117.05 127.468 117.637 127.014 118.284C126.601 118.925 126.262 119.493 125.997 119.988C125.772 120.478 125.706 120.758 125.799 120.829C125.95 121.017 126.321 121.133 126.911 121.177C127.496 121.18 128.133 121.113 128.824 120.977C129.555 120.834 130.132 120.63 130.554 120.363ZM163.22 128.452C162.401 128.565 161.703 128.494 161.126 128.239C160.543 127.944 160.011 127.412 159.529 126.644C159.287 126.093 159.056 125.478 158.838 124.799C158.655 124.073 158.521 123.403 158.436 122.789C158.346 122.134 158.349 121.695 158.443 121.474C158.585 121.287 158.607 120.992 158.509 120.588C158.447 120.138 158.383 119.667 158.315 119.176C158.162 118.362 157.895 117.94 157.515 117.909C157.171 117.831 156.696 118.021 156.092 118.48C155.417 119.032 154.539 119.778 153.458 120.719C152.372 121.62 151.236 122.61 150.049 123.691C148.904 124.767 147.825 125.875 146.814 127.015C146.048 128.122 145.599 128.955 145.468 129.516C145.371 130.029 145.159 130.309 144.832 130.354C144.527 130.563 144.243 130.623 143.98 130.534C143.753 130.398 143.412 130.194 142.958 129.923C142.626 129.635 142.297 129.367 141.971 129.12C141.639 128.832 141.421 128.611 141.317 128.459C141.289 128.254 141.291 127.816 141.324 127.144C141.357 126.472 141.41 125.797 141.484 125.119C141.598 124.436 141.683 123.986 141.736 123.77C141.941 123.742 142.077 123.515 142.143 123.088C142.251 122.656 142.435 122.172 142.695 121.636C142.709 121.133 142.824 120.45 143.039 119.586C143.289 118.675 143.512 117.873 143.709 117.178C144.147 116.116 144.424 115.244 144.538 114.561C144.694 113.872 144.745 113.03 144.692 112.036C144.629 111.878 144.65 111.729 144.756 111.589C144.856 111.409 144.988 111.307 145.152 111.285C145.435 110.912 145.812 110.777 146.285 110.879C146.753 110.939 147.204 111.19 147.64 111.631C148.512 112.512 148.94 113.497 148.922 114.584C148.94 115.625 148.488 117.189 147.565 119.277C147.368 119.971 147.213 120.514 147.1 120.905C147.022 121.249 146.998 121.524 147.026 121.729C147.026 121.729 147.211 121.557 147.581 121.214C147.992 120.866 148.438 120.471 148.92 120.029C149.437 119.541 149.845 119.172 150.144 118.922C150.321 118.689 150.741 118.256 151.405 117.622C152.069 116.988 152.777 116.37 153.528 115.766C154.315 115.115 154.907 114.721 155.306 114.583C155.611 114.374 155.939 114.183 156.291 114.009C156.637 113.795 156.892 113.676 157.055 113.654C157.383 113.609 157.818 113.737 158.36 114.038C158.937 114.292 159.485 114.634 160.003 115.063C160.515 115.452 160.835 115.804 160.962 116.121C160.984 116.285 161.007 116.448 161.029 116.612C161.093 116.77 161.156 116.928 161.22 117.087C161.457 117.596 161.637 118.302 161.761 119.203C161.926 120.098 162.018 120.92 162.037 121.668C162.057 122.416 161.972 122.866 161.785 123.017C161.785 123.017 161.793 123.078 161.81 123.201C161.862 123.277 161.97 123.304 162.134 123.282C162.156 123.446 162.171 123.548 162.176 123.589C161.971 123.617 161.915 123.813 162.006 124.176C162.092 124.497 162.266 124.849 162.527 125.23C162.829 125.606 163.12 125.9 163.399 126.112C163.958 126.536 164.227 126.979 164.208 127.44C164.182 127.861 163.853 128.198 163.22 128.452ZM172.487 132.498C171.894 133.038 171.542 133.358 171.43 133.457C171.365 133.591 171.034 133.303 170.435 132.592C170.079 132.432 169.823 132.238 169.667 132.009C169.516 131.821 169.403 131.608 169.328 131.367C169.253 131.127 169.179 130.887 169.104 130.647C169.048 130.238 169.099 129.396 169.258 128.123C169.416 126.849 169.632 125.38 169.904 123.716C170.175 122.051 170.471 120.404 170.789 118.775C171.143 117.099 171.451 115.701 171.714 114.58C171.9 113.804 172.058 113.135 172.19 112.575C172.316 111.973 172.417 111.5 172.495 111.156C172.597 110.683 172.794 109.988 173.085 109.072C173.412 108.109 173.756 107.123 174.118 106.114C174.474 105.064 174.771 104.188 175.008 103.488C175.281 102.741 175.418 102.368 175.418 102.368C175.36 102.251 175.444 101.801 175.67 101.019C175.891 100.196 176.194 99.2156 176.58 98.0777C176.966 96.9399 177.373 95.7993 177.8 94.6558C178.221 93.4714 178.606 92.4797 178.955 91.6807C179.494 90.4385 179.907 89.6515 180.195 89.3199C180.519 88.9416 180.899 88.8267 181.337 88.9752C181.653 88.8483 182.063 88.792 182.566 88.8063C183.068 88.8207 183.535 88.8816 183.967 88.9891C184.44 89.091 184.717 89.2824 184.797 89.5634C184.896 89.675 184.962 89.9998 184.994 90.5378C185.021 91.0348 185.02 91.6398 184.993 92.3528C184.929 94.6146 184.97 96.7368 185.117 98.7192C185.3 100.655 185.578 102.682 185.953 104.8C186.369 106.912 186.893 109.364 187.527 112.156L189.763 118.858L190.59 116.679C190.958 115.711 191.276 114.687 191.544 113.607C191.854 112.521 192.194 111.348 192.563 110.087C192.761 109.1 193.005 108.149 193.297 107.233C193.582 106.275 193.725 105.797 193.725 105.797C194.032 105.296 194.29 104.593 194.499 103.688C194.75 102.777 194.959 101.872 195.127 100.973C195.29 100.033 195.423 99.3261 195.524 98.8532C195.567 98.5553 195.625 98.0675 195.699 97.3898C195.813 96.7065 195.931 96.0437 196.051 95.4013C196.213 94.7533 196.384 94.3333 196.566 94.1414C196.533 93.8957 196.541 93.3521 196.593 92.5106C196.638 91.6282 196.707 90.7634 196.799 89.9163C196.927 89.0226 197 88.4911 197.018 88.3217C197.018 88.3217 197.089 88.2285 197.23 88.0422C197.366 87.8149 197.502 87.4416 197.639 86.922L199.292 86.1942C200.102 86.6253 200.567 87.1246 200.687 87.6922C200.847 88.2543 200.728 89.2094 200.329 90.5576C200.373 91.1774 200.338 91.6829 200.225 92.0739C200.106 92.424 200.047 92.5991 200.047 92.5991C200.293 92.5653 200.394 92.6974 200.352 92.9952C200.309 93.2931 200.275 93.6525 200.249 94.0732C200.207 94.3711 200.137 94.9231 200.039 95.7293C199.936 96.4945 199.838 97.3007 199.746 98.1478C199.648 98.9539 199.566 99.5702 199.499 99.9966C199.438 100.464 199.291 101.214 199.058 102.248C198.819 103.24 198.514 104.367 198.145 105.627C197.771 106.847 197.399 108.087 197.03 109.348C196.696 110.562 196.363 111.63 196.031 112.552C195.734 113.427 195.523 114.019 195.399 114.328C195.31 114.591 195.208 114.918 195.095 115.309C195.023 115.694 194.899 116.003 194.722 116.236C194.607 116.92 194.311 117.795 193.831 118.862C193.388 119.883 192.915 120.845 192.413 121.748C191.906 122.611 191.482 123.17 191.142 123.425C190.683 124.03 190.097 124.32 189.383 124.292C188.67 124.265 187.98 123.943 187.311 123.326C186.636 122.667 186.097 121.782 185.694 120.669C185.585 120.183 185.37 119.379 185.049 118.254C184.727 117.13 184.372 115.907 183.981 114.584C183.632 113.255 183.317 112.026 183.036 110.896C182.75 109.725 182.568 108.853 182.489 108.28C182.212 107.484 182.07 106.752 182.062 106.086C182.095 105.414 182.036 104.838 181.887 104.358C181.797 103.702 181.739 103.126 181.712 102.629C181.685 102.132 181.662 101.656 181.641 101.2C181.655 100.697 181.623 100.159 181.544 99.5859C181.496 98.6328 181.282 98.2868 180.901 98.5478C180.519 98.8088 179.887 100.127 179.003 102.501C178.74 103.622 178.414 104.585 178.023 105.389C177.669 106.147 177.523 106.605 177.587 106.764C177.485 107.237 177.297 107.993 177.022 109.032C176.742 110.03 176.435 111.136 176.101 112.35C175.762 113.523 175.437 114.652 175.128 115.738C174.853 116.777 174.633 117.6 174.466 118.207C174.264 118.861 174.057 119.786 173.846 120.983C173.671 122.134 173.503 123.346 173.345 124.62C173.227 125.887 173.13 127.006 173.055 127.976C172.974 128.905 172.91 129.498 172.862 129.755C172.931 129.954 172.923 130.206 172.84 130.509C172.762 130.854 172.645 131.517 172.487 132.498ZM210.436 122.463C209.598 122.745 209.054 122.882 208.803 122.875C208.587 122.821 208.225 122.62 207.718 122.273C207.018 122.035 206.409 121.702 205.891 121.272C205.414 120.837 205.037 120.368 204.759 119.863C204.516 119.313 204.39 118.85 204.38 118.476C204.306 117.026 204.443 115.443 204.791 113.726C205.139 112.009 205.619 110.337 206.23 108.709C206.84 107.082 207.543 105.671 208.339 104.477C209.17 103.236 210.013 102.39 210.869 101.938C211.643 101.498 212.404 101.268 213.152 101.249C213.9 101.23 214.486 101.545 214.909 102.196C215.687 103.3 215.648 104.077 214.792 104.528C214.669 104.545 214.534 104.626 214.387 104.772C214.235 104.876 214.17 105.01 214.192 105.174C214.367 105.233 214.821 105.192 215.552 105.05C216.278 104.866 216.998 104.642 217.713 104.377C218.462 104.065 218.946 103.79 219.164 103.552C219.392 103.395 219.568 103.308 219.691 103.292C219.814 103.275 220.127 103.273 220.629 103.288C221.354 103.397 221.735 103.595 221.775 103.881C221.797 104.045 221.881 104.2 222.027 104.347C222.166 104.453 222.318 104.495 222.482 104.472C222.774 104.474 222.759 104.664 222.435 105.042C222.153 105.415 221.641 105.944 220.901 106.63C220.191 107.228 219.744 107.623 219.562 107.815C219.415 107.961 219.434 108.25 219.619 108.684C220.053 109.417 220.198 110.315 220.052 111.378C219.906 112.441 219.537 113.555 218.947 114.721C218.356 115.887 217.593 117.014 216.658 118.103C215.758 119.144 214.759 120.074 213.662 120.893C212.6 121.664 211.524 122.188 210.436 122.463ZM209.02 119.903C209.184 119.881 209.459 119.76 209.846 119.54C210.227 119.279 210.532 119.07 210.761 118.913C210.903 118.727 211.082 118.514 211.3 118.276C211.552 117.991 211.758 117.817 211.916 117.753C212.08 117.731 212.276 117.641 212.505 117.484C212.728 117.287 213.034 116.932 213.422 116.419C213.805 115.866 214.301 115.068 214.908 114.025C215.603 113.011 216.125 112.105 216.475 111.306C216.818 110.466 216.842 109.733 216.548 109.106C216.484 108.948 216.347 108.862 216.137 108.849C215.967 108.831 215.728 108.759 215.419 108.635C215.01 108.691 214.606 108.642 214.21 108.488C213.848 108.288 213.417 108.034 212.916 107.727L211.764 106.634L210.864 107.822C210.299 108.567 209.738 109.646 209.181 111.057C208.659 112.422 208.245 113.814 207.94 115.233C207.629 116.611 207.485 117.695 207.511 118.484C207.554 119.104 207.713 119.499 207.987 119.67C208.26 119.841 208.605 119.919 209.02 119.903ZM233.622 121.528C233.026 121.443 232.53 121.324 232.133 121.17C231.731 120.975 231.186 120.653 230.499 120.205C229.917 119.618 229.444 119.057 229.078 118.523C228.754 117.984 228.5 117.351 228.317 116.625C228.128 115.858 227.952 114.881 227.789 113.694C227.721 113.202 227.702 112.454 227.73 111.449C227.8 110.438 227.884 109.383 227.984 108.285C228.118 107.14 228.229 106.123 228.316 105.235C228.443 104.341 228.51 103.769 228.518 103.518C228.567 102.968 228.32 102.689 227.777 102.681C227.233 102.672 226.637 102.733 225.987 102.864C225.373 102.949 224.955 102.943 224.733 102.849C224.564 102.83 224.473 102.78 224.462 102.698C224.445 102.575 224.437 102.514 224.437 102.514C224.414 102.35 224.38 102.251 224.333 102.215C224.322 102.133 224.241 101.999 224.09 101.811C223.985 101.658 223.995 101.427 224.12 101.118C224.28 100.762 224.579 100.513 225.018 100.369C225.375 100.236 225.858 100.107 226.467 99.982C227.111 99.81 227.746 99.5766 228.373 99.2818C228.995 98.9461 229.476 98.5044 229.818 97.9567C230.063 97.0052 230.355 95.9429 230.695 94.7697C231.034 93.5966 231.37 92.5491 231.702 91.6272C232.07 90.6588 232.321 90.061 232.457 89.8337C233.102 89.3695 233.594 89.1558 233.933 89.1927C234.266 89.1886 234.683 89.486 235.182 90.0849C235.427 90.3434 235.601 90.5489 235.705 90.7015C235.851 90.8484 235.905 91.0912 235.868 91.4301C235.831 91.7689 235.676 92.3117 235.403 93.0585C235.172 93.7997 234.798 94.8733 234.282 96.2793C234.133 96.7169 234 97.1108 233.881 97.4609C233.756 97.77 233.694 97.9246 233.694 97.9246C233.864 97.9431 234.112 97.9298 234.44 97.8847C234.767 97.8397 235.174 97.7629 235.66 97.6544C236.099 97.5106 236.664 97.3704 237.354 97.2338C238.039 97.0562 238.592 96.9802 239.013 97.0058C239.954 96.8763 240.676 96.9649 241.177 97.2715C241.672 97.5372 241.997 98.0767 242.15 98.8901C242.294 99.3292 242.228 99.6095 241.953 99.7308C241.719 99.8464 241.049 99.9803 239.943 100.132C239.574 100.183 239.004 100.282 238.232 100.43C237.459 100.578 236.646 100.731 235.792 100.891C234.978 101.044 234.27 101.204 233.667 101.37C233.099 101.49 232.821 101.591 232.833 101.673C232.721 101.772 232.57 102.189 232.379 102.924C232.229 103.654 232.072 104.489 231.91 105.43C231.782 106.323 231.664 107.132 231.555 107.856C231.459 109.288 231.426 110.711 231.453 112.126C231.522 113.535 231.667 114.746 231.89 115.758C232.113 116.771 232.436 117.457 232.861 117.815C233.28 118.133 234.008 118.117 235.045 117.766C236.076 117.374 236.882 116.866 237.464 116.244C238.117 115.528 238.668 115.14 239.119 115.078C239.61 115.01 239.907 115.199 240.01 115.644C240.148 116.042 240.005 116.667 239.579 117.518C239.189 118.322 238.665 119.062 238.007 119.737C237.343 120.37 236.618 120.866 235.833 121.224C235.083 121.536 234.346 121.637 233.622 121.528ZM250.392 117.846C248.705 117.411 247.537 116.653 246.888 115.574C246.274 114.449 245.942 112.638 245.891 110.142C245.798 108.861 245.724 108.016 245.668 107.606C245.611 107.197 245.33 106.818 244.823 106.471C244.678 106.324 244.421 106.13 244.054 105.888C243.728 105.641 243.572 105.412 243.585 105.202C243.504 104.921 243.483 104.611 243.519 104.272C243.551 103.892 243.648 103.691 243.812 103.668C243.976 103.646 244.134 103.582 244.286 103.478C244.48 103.368 244.664 103.343 244.839 103.402C245.003 103.379 245.19 103.375 245.401 103.387C245.611 103.4 245.727 103.488 245.75 103.652C245.953 103.916 246.225 103.921 246.565 103.665C246.9 103.369 247.216 102.783 247.513 101.908C247.832 101.196 248.274 100.468 248.84 99.7229C249.446 98.972 250.04 98.2854 250.622 97.663C251.239 96.9941 251.756 96.5058 252.173 96.1982C252.366 96.0881 252.659 95.9435 253.052 95.7644C253.444 95.5853 253.86 95.4238 254.299 95.28C254.779 95.1306 255.186 95.0538 255.519 95.0497C256.262 94.9893 256.904 95.1097 257.446 95.4106C258.029 95.706 258.58 96.0684 259.098 96.4979C259.681 96.7932 260.076 97.2396 260.283 97.8369C260.532 98.4286 260.663 99.0782 260.676 99.7856C260.69 100.493 260.593 101.153 260.385 101.766C260.319 102.192 260.038 102.731 259.544 103.383C259.049 104.035 258.47 104.678 257.806 105.312C257.142 105.946 256.52 106.427 255.94 106.758C255.424 106.954 254.742 107.152 253.893 107.352C253.086 107.546 252.313 107.694 251.576 107.795C250.875 107.85 250.392 107.833 250.13 107.744C249.821 107.62 249.626 107.876 249.547 108.512C249.468 109.149 249.466 110.046 249.542 111.204C249.584 112.116 249.674 112.772 249.812 113.17C249.95 113.568 250.071 113.843 250.176 113.996C250.502 114.243 250.941 114.558 251.495 114.941C252.083 115.277 252.829 115.238 253.731 114.821C254.481 114.51 255.165 113.873 255.784 112.912C256.444 111.945 257.065 111.151 257.647 110.528C257.771 110.219 258.015 110.019 258.378 109.927C258.776 109.789 259.209 109.75 259.676 109.811C260.166 110.036 260.398 110.359 260.373 110.779C260.382 111.153 260.256 111.755 259.995 112.584C259.911 112.887 259.675 113.295 259.287 113.807C258.934 114.273 258.522 114.768 258.051 115.291C257.616 115.768 257.211 116.158 256.835 116.46C255.697 117.284 254.598 117.79 253.539 117.977C252.474 118.123 251.425 118.08 250.392 117.846ZM252.302 104.879C253.175 104.551 253.872 104.309 254.393 104.154C254.914 103.999 255.395 103.703 255.835 103.267C256.27 102.79 256.781 101.948 257.366 100.741C257.468 100.268 257.447 99.8123 257.303 99.3731C257.2 98.9283 257.055 98.6353 256.869 98.494C256.444 98.1352 255.977 98.0743 255.467 98.3112C254.993 98.5016 254.553 98.7916 254.147 99.1811C253.877 99.3433 253.49 99.7095 252.984 100.28C252.514 100.803 252.054 101.409 251.606 102.096C251.153 102.743 250.796 103.334 250.536 103.87C250.276 104.407 250.234 104.705 250.409 104.764C250.349 104.939 250.589 105.011 251.127 104.978C251.705 104.941 252.097 104.908 252.302 104.879Z" fill="#212121" fill-opacity="0.85"/>
</svg>
