<?xml version="1.0" standalone="no"?>
<!DOCTYPE svg PUBLIC "-//W3C//DTD SVG 20010904//EN"
 "http://www.w3.org/TR/2001/REC-SVG-20010904/DTD/svg10.dtd">
<svg version="1.0" xmlns="http://www.w3.org/2000/svg"
 width="652.000000pt" height="652.000000pt" viewBox="0 0 652.000000 652.000000"
 preserveAspectRatio="xMidYMid meet">
<metadata>
Created by potrace 1.14, written by Peter Selinger 2001-2017
</metadata>
<g transform="translate(0.000000,652.000000) scale(0.100000,-0.100000)"
fill="#000000" stroke="none">
<path d="M2425 5887 c-7 -10 -14 -14 -16 -8 -2 6 -23 -4 -46 -23 -23 -18 -40
-36 -37 -38 3 -3 -7 -8 -21 -12 -14 -4 -25 -11 -25 -17 0 -6 6 -7 13 -3 7 4 9
3 4 -2 -9 -9 -13 -10 -43 -13 -8 0 -13 -4 -11 -8 5 -9 -12 -28 -28 -31 -5 -1
-10 -11 -10 -22 0 -10 -9 -27 -19 -37 -19 -17 -19 -17 -6 1 13 17 22 46 15 46
-8 0 -52 -46 -58 -60 -3 -10 -6 -11 -6 -2 -1 12 -9 6 -81 -59 -16 -15 -32 -24
-35 -21 -3 3 -5 -2 -5 -12 0 -9 -4 -14 -10 -11 -5 3 -10 1 -10 -5 0 -6 -4 -9
-9 -6 -15 10 -22 -25 -9 -43 8 -10 5 -9 -10 3 -12 11 -22 15 -22 9 0 -5 -12
-15 -26 -22 -17 -7 -24 -17 -20 -27 3 -9 2 -12 -5 -9 -12 8 -41 -14 -33 -26 3
-5 -1 -7 -8 -4 -7 3 -32 -12 -55 -33 -65 -57 -86 -72 -103 -73 -8 0 -25 -2
-38 -5 -20 -3 -206 49 -349 99 -64 22 -131 19 -183 -9 -51 -28 -81 -67 -105
-139 -16 -48 -139 -439 -193 -612 -15 -49 -29 -80 -35 -76 -6 4 -8 0 -4 -10 3
-9 3 -16 -1 -15 -15 4 -52 -14 -47 -23 4 -5 2 -9 -2 -9 -5 0 -18 -6 -28 -14
-17 -12 -18 -16 -5 -32 14 -17 13 -18 -2 -6 -19 15 -42 6 -69 -26 -9 -11 -23
-22 -30 -25 -12 -5 -11 -8 1 -17 12 -9 11 -10 -6 -5 -23 6 -58 -20 -49 -36 4
-5 0 -7 -7 -4 -7 3 -25 -6 -39 -19 -15 -14 -30 -22 -33 -19 -3 4 -6 2 -6 -3 0
-6 -20 -26 -45 -44 -27 -20 -43 -40 -40 -48 2 -7 0 -10 -5 -7 -15 9 -52 -15
-46 -30 3 -9 0 -12 -11 -8 -8 3 -18 2 -22 -3 -3 -5 -24 -24 -46 -42 -64 -54
-108 -89 -143 -118 -31 -25 -32 -27 -16 -45 11 -12 21 -16 27 -10 5 5 16 7 25
4 8 -4 13 -2 9 3 -3 5 7 9 21 8 15 -1 33 -3 40 -3 6 -1 12 -8 12 -17 0 -8 -4
-13 -9 -9 -5 3 -15 -10 -21 -29 -6 -19 -16 -37 -23 -40 -7 -2 -4 -5 6 -5 10
-1 15 -5 12 -11 -3 -5 -1 -10 4 -10 6 0 11 6 11 13 1 16 20 -18 25 -44 7 -35
22 -45 70 -48 37 -1 45 1 45 15 0 10 3 15 6 11 7 -6 20 3 65 45 16 14 29 25
29 23 0 -2 15 9 32 26 18 16 37 29 41 29 5 0 4 6 -2 13 -8 11 -6 13 12 13 13
-1 21 4 19 12 -1 8 2 11 7 8 5 -4 23 6 40 20 36 30 36 29 16 -20 -8 -20 -14
-37 -14 -38 1 -2 -3 -21 -10 -43 -16 -50 -18 -58 -20 -67 -1 -4 -9 -27 -17
-50 -9 -24 -20 -56 -24 -73 -4 -16 -36 -118 -70 -225 -58 -187 -128 -406 -192
-610 -16 -52 -38 -120 -48 -150 -10 -30 -28 -89 -40 -130 -12 -41 -24 -82 -27
-90 -4 -8 -7 -17 -8 -20 -2 -11 -27 -86 -32 -100 -3 -8 -7 -22 -9 -30 -2 -8
-19 -64 -39 -125 -20 -60 -39 -119 -43 -130 -11 -37 -7 -132 8 -161 24 -47 75
-89 132 -108 144 -48 404 -128 415 -129 7 0 15 -12 18 -27 8 -38 81 -108 124
-120 39 -10 88 -19 136 -26 17 -2 41 -6 55 -9 31 -6 88 -16 115 -20 11 -1 36
-5 55 -9 19 -3 46 -8 60 -10 14 -2 41 -7 60 -10 19 -3 46 -8 60 -10 14 -2 41
-7 60 -10 19 -3 48 -8 63 -10 23 -4 55 -13 147 -41 3 -1 19 -5 35 -10 17 -4
35 -10 40 -14 6 -3 19 -7 30 -8 11 -2 29 -7 40 -13 11 -5 52 -19 92 -30 40
-12 76 -27 81 -33 5 -7 16 -39 25 -72 8 -33 23 -85 32 -115 9 -30 18 -62 20
-70 27 -97 46 -165 60 -214 47 -169 155 -216 348 -151 40 13 176 52 207 60 36
8 191 54 199 59 5 4 19 -9 31 -28 33 -54 84 -93 132 -102 24 -4 45 -7 48 -7 3
1 26 4 50 7 47 5 178 24 220 32 14 2 44 7 66 10 23 2 53 7 65 10 13 2 42 7 64
10 22 2 51 7 65 9 14 2 45 6 70 10 25 3 56 8 70 10 40 7 84 14 121 19 19 3 50
8 70 11 20 3 51 7 70 9 19 2 50 6 69 10 19 3 51 8 70 11 19 2 46 7 59 10 14 2
45 7 70 10 25 3 57 7 71 10 27 5 84 14 127 19 45 6 126 18 148 22 11 3 38 7
60 10 22 2 54 7 70 10 17 3 44 7 60 10 28 3 75 10 136 20 24 4 76 11 136 19
13 2 41 6 63 10 42 7 56 9 134 20 27 3 71 10 98 15 27 5 52 9 56 9 4 -1 9 0
12 1 5 2 25 5 95 14 22 3 54 7 70 10 56 10 240 38 272 41 18 2 58 9 89 14 31
6 60 8 65 5 5 -3 9 0 9 6 0 6 4 9 9 6 5 -3 31 -2 58 3 28 6 70 12 94 15 24 3
53 8 64 10 11 2 47 7 80 12 33 4 62 8 65 9 3 1 20 5 39 9 57 14 94 40 123 87
34 54 39 104 23 200 -7 41 -15 97 -18 124 -3 28 -8 57 -10 65 -5 14 -11 51
-23 155 -2 21 -7 51 -9 65 -3 14 -8 41 -10 60 -3 19 -10 64 -15 100 -6 36 -12
81 -15 100 -2 19 -7 46 -10 60 -3 14 -8 45 -10 70 -2 25 -6 54 -8 65 -3 11 -8
43 -12 70 -13 100 -15 110 -20 135 -3 14 -8 45 -10 70 -3 25 -7 56 -10 70 -3
14 -7 39 -9 55 -2 17 -9 62 -15 100 -6 39 -13 86 -16 105 -2 19 -7 46 -9 60
-3 14 -8 48 -11 75 -13 92 -23 159 -29 190 -2 11 -7 43 -10 70 -4 28 -11 75
-16 105 -5 30 -12 75 -15 100 -3 25 -9 70 -15 100 -5 30 -12 73 -15 95 -3 22
-10 67 -15 100 -5 33 -12 80 -15 105 -3 25 -8 56 -10 70 -6 35 -13 77 -20 130
-3 25 -8 56 -10 70 -2 14 -7 43 -10 65 -3 23 -7 50 -9 60 -2 11 -7 45 -11 75
-4 30 -9 64 -11 75 -5 25 -13 83 -19 130 -3 21 -7 50 -10 64 -2 14 -7 40 -10
58 -9 57 -26 87 -66 125 -36 34 -52 40 -129 53 -8 2 -51 -3 -95 -10 -44 -7
-98 -16 -120 -19 -22 -4 -60 -9 -85 -12 -25 -3 -52 -7 -60 -9 -12 -4 -67 -11
-119 -17 -23 -2 -30 9 -36 60 -4 31 -8 71 -11 87 -2 17 -6 54 -8 83 -3 29 -8
63 -10 75 -3 12 -8 47 -11 77 -6 54 -8 76 -21 175 -8 64 -12 99 -18 155 -5 50
-19 93 -38 116 -69 82 -119 98 -253 80 -58 -8 -88 -12 -169 -22 -109 -13 -121
-14 -162 -19 -22 -2 -56 -7 -75 -10 -18 -3 -56 -8 -84 -11 -90 -9 -119 -12
-155 -18 -19 -3 -55 -8 -80 -10 -25 -3 -61 -7 -80 -10 -19 -3 -55 -8 -80 -10
-25 -3 -61 -7 -80 -10 -19 -3 -60 -8 -90 -11 -30 -3 -66 -7 -80 -9 -25 -5 -74
-11 -167 -21 -27 -3 -63 -8 -81 -11 -18 -2 -54 -7 -80 -10 -26 -3 -58 -7 -72
-9 -14 -2 -52 -7 -85 -11 -33 -3 -69 -8 -80 -10 -11 -2 -45 -6 -75 -9 -30 -3
-89 -9 -130 -15 -41 -5 -99 -12 -129 -15 -30 -4 -63 -8 -74 -11 -11 -2 -43 -6
-71 -9 -28 -3 -62 -7 -76 -9 -63 -8 -257 -30 -275 -31 -11 0 -23 -4 -27 -10
-4 -5 -6 0 -5 12 0 12 4 20 8 17 4 -2 15 3 23 12 9 8 16 13 16 9 0 -3 10 3 22
15 12 11 26 20 31 20 5 0 4 7 -3 15 -11 13 -10 14 2 10 14 -6 105 60 154 111
12 13 23 21 25 20 2 -2 14 12 26 31 13 19 18 31 11 27 -7 -4 -8 -3 -4 4 4 6
13 9 21 6 23 -9 36 28 16 51 -20 24 -41 30 -41 13 0 -10 -2 -10 -9 0 -4 7 -17
14 -29 15 -17 1 -19 5 -11 19 6 10 7 23 4 28 -3 6 -1 10 4 10 6 0 11 4 11 10
0 5 -7 6 -17 3 -10 -4 -14 -2 -10 4 9 15 -19 37 -38 29 -9 -3 -15 0 -15 9 0 8
-5 15 -11 15 -5 0 -7 -5 -3 -12 5 -7 3 -8 -6 -3 -25 15 -72 11 -85 -8z m49 -8
c3 -3 -5 -5 -19 -5 -13 0 -22 3 -19 7 4 8 30 6 38 -2z m54 -29 c-7 -10 -14
-17 -17 -15 -4 4 18 35 25 35 2 0 -1 -9 -8 -20z m36 11 c3 -4 -4 -17 -17 -27
-22 -19 -22 -19 -4 2 9 11 14 24 10 27 -3 4 -4 7 0 7 3 0 8 -4 11 -9z m-68
-43 c3 -4 -1 -5 -10 -4 -8 1 -18 5 -22 8 -3 4 1 5 10 4 8 -1 18 -5 22 -8z
m-105 -15 c13 -16 12 -17 -3 -4 -10 7 -18 15 -18 17 0 8 8 3 21 -13z m-21 -18
c14 -19 14 -19 -2 -6 -10 7 -18 18 -18 24 0 6 1 8 3 6 1 -2 9 -13 17 -24z m79
22 c-2 -1 -13 -9 -24 -17 -19 -14 -19 -14 -6 3 7 9 18 17 24 17 6 0 8 -1 6 -3z
m-2 -35 c-17 -18 -51 -27 -41 -10 3 5 9 6 14 3 4 -3 13 2 20 10 7 8 15 15 18
15 3 0 -2 -8 -11 -18z m123 14 c0 -2 -7 -7 -16 -10 -8 -3 -12 -2 -9 4 6 10 25
14 25 6z m-214 -28 c12 -14 13 -18 3 -10 -9 6 -18 10 -21 7 -2 -3 -5 2 -5 10
0 19 0 19 23 -7z m174 19 c0 -2 -8 -11 -18 -20 -15 -14 -19 -15 -19 -2 0 8 4
12 8 9 4 -2 10 0 14 6 6 10 15 14 15 7z m77 -25 c0 -10 -6 -19 -13 -19 -9 0
-9 5 -1 19 7 10 13 18 14 18 1 0 1 -8 0 -18z m-42 -20 c-3 -3 -11 0 -18 7 -9
10 -8 11 6 5 10 -3 15 -9 12 -12z m-203 -7 c3 3 11 -3 19 -12 12 -16 12 -17
-2 -6 -9 7 -18 11 -21 8 -3 -3 -11 3 -19 12 -12 16 -12 17 2 6 9 -7 18 -11 21
-8z m68 11 c0 -2 -8 -10 -17 -17 -16 -13 -17 -12 -4 4 13 16 21 21 21 13z
m-100 -31 c14 -19 14 -19 -2 -6 -10 7 -18 18 -18 24 0 6 1 8 3 6 1 -2 9 -13
17 -24z m174 9 c3 -8 2 -12 -4 -9 -6 3 -10 10 -10 16 0 14 7 11 14 -7z m-249
-13 c-9 -8 -36 -10 -30 -2 2 4 11 8 20 8 8 0 13 -3 10 -6z m56 -18 c13 -16 12
-17 -3 -4 -10 7 -18 15 -18 17 0 8 8 3 21 -13z m71 2 c2 3 5 -2 5 -10 0 -19 0
-19 -23 7 -12 14 -13 18 -3 10 9 -6 18 -10 21 -7z m180 0 c3 3 11 -3 19 -12
12 -16 12 -17 -2 -6 -9 7 -18 11 -21 8 -3 -3 -11 3 -19 12 -12 16 -12 17 2 6
9 -7 18 -11 21 -8z m64 0 c-1 -8 -5 -17 -8 -21 -5 -4 -4 16 1 34 3 9 9 -1 7
-13z m-336 -20 c14 -19 14 -19 -2 -6 -10 7 -18 18 -18 24 0 6 1 8 3 6 1 -2 9
-13 17 -24z m176 13 c4 -7 3 -10 -1 -5 -5 4 -18 -1 -29 -10 -21 -18 -21 -18
-2 5 22 26 23 26 32 10z m57 -6 c15 -16 15 -19 2 -19 -8 0 -13 3 -10 5 3 3 0
11 -6 19 -17 20 -5 16 14 -5z m-188 -12 c-3 -5 -12 -10 -18 -10 -7 0 -6 4 3
10 19 12 23 12 15 0z m131 -15 c-1 -8 -5 -17 -8 -21 -5 -4 -4 16 1 34 3 9 9
-1 7 -13z m100 -11 c1 -9 0 -13 -4 -10 -3 4 -7 14 -8 22 -1 9 0 13 4 10 3 -4
7 -14 8 -22z m-372 7 c-3 -4 -7 -4 -9 -1 -1 3 -13 -4 -26 -15 -13 -11 -18 -13
-11 -4 6 9 10 18 7 20 -2 3 7 5 20 5 13 0 22 -2 19 -5z m162 -19 c-17 -16 -18
-16 -5 5 7 12 15 20 18 17 3 -2 -3 -12 -13 -22z m-85 -19 c13 -16 12 -17 -3
-4 -10 7 -18 15 -18 17 0 8 8 3 21 -13z m116 2 c0 -8 -3 -13 -5 -10 -3 3 -12
-1 -21 -7 -10 -8 -9 -4 3 10 23 26 23 26 23 7z m137 -14 c-2 -3 -12 3 -22 13
-16 17 -16 18 5 5 12 -7 20 -15 17 -18z m-34 -6 c14 -19 14 -19 -2 -6 -10 7
-18 18 -18 24 0 6 1 8 3 6 1 -2 9 -13 17 -24z m-403 0 c0 -8 -10 -23 -21 -32
-21 -18 -21 -18 -2 5 11 12 16 22 12 22 -4 0 -4 5 -1 10 9 14 12 13 12 -5z
m43 11 c0 -2 -8 -10 -17 -17 -16 -13 -17 -12 -4 4 13 16 21 21 21 13z m126
-18 c3 -4 -1 -5 -10 -4 -8 1 -18 5 -22 8 -3 4 1 5 10 4 8 -1 18 -5 22 -8z m84
9 c0 -2 -10 -13 -23 -25 -18 -17 -24 -19 -24 -8 0 8 4 13 8 11 3 -3 12 2 19
10 12 14 20 19 20 12z m-197 -22 c-3 -9 -8 -14 -10 -11 -3 3 -2 9 2 15 9 16
15 13 8 -4z m240 0 c-3 -9 -8 -14 -10 -11 -3 3 -2 9 2 15 9 16 15 13 8 -4z
m83 -11 c1 -9 0 -13 -4 -10 -3 4 -7 14 -8 22 -1 9 0 13 4 10 3 -4 7 -14 8 -22z
m-245 -1 c12 -16 12 -17 -2 -6 -9 7 -19 10 -22 6 -4 -3 -7 -1 -7 5 0 17 16 15
31 -5z m186 10 c-4 -3 -1 -13 6 -22 11 -14 10 -14 -5 -2 -16 12 -16 31 -1 31
4 0 3 -3 0 -7z m-236 -20 c13 -16 12 -17 -3 -4 -10 7 -18 15 -18 17 0 8 8 3
21 -13z m154 -13 c-10 -11 -20 -18 -23 -15 -3 3 -15 -3 -26 -12 -21 -18 -21
-18 -2 4 10 13 22 20 26 18 4 -3 13 2 20 10 7 8 15 15 18 15 3 0 -3 -9 -13
-20z m-174 -7 c13 -16 12 -17 -3 -4 -10 7 -18 15 -18 17 0 8 8 3 21 -13z m256
-28 c0 -8 -4 -12 -9 -9 -5 4 -7 9 -4 12 3 3 -2 15 -11 26 -18 21 -18 21 3 3
11 -9 21 -24 21 -32z m-402 17 c-3 -3 -11 0 -18 7 -9 10 -8 11 6 5 10 -3 15
-9 12 -12z m82 12 c-3 -3 -12 -6 -20 -8 -8 -1 -23 -8 -33 -16 -18 -14 -18 -14
-2 6 9 11 27 20 39 21 12 1 19 0 16 -3z m36 -12 c15 -16 15 -19 2 -19 -8 0
-13 3 -10 5 3 3 0 11 -6 19 -17 20 -5 16 14 -5z m103 6 c4 -7 4 -10 -1 -6 -4
4 -15 2 -24 -5 -14 -11 -14 -10 -2 6 16 20 18 21 27 5z m144 -13 c14 -19 14
-19 -2 -6 -10 7 -18 18 -18 24 0 6 1 8 3 6 1 -2 9 -13 17 -24z m-195 -5 c-3
-5 -12 -10 -18 -10 -7 0 -6 4 3 10 19 12 23 12 15 0z m-115 -15 c-7 -8 -17
-15 -23 -15 -6 0 -2 7 9 15 25 19 30 19 14 0z m167 0 c0 -8 -3 -13 -5 -10 -3
3 -15 -3 -26 -12 -15 -14 -18 -14 -8 -2 6 9 8 20 4 24 -4 5 -2 5 5 1 6 -3 14
-2 18 4 9 14 12 13 12 -5z m80 -10 c0 -8 -4 -12 -9 -9 -4 3 -8 9 -8 15 0 5 4
9 8 9 5 0 9 -7 9 -15z m57 4 c3 -3 -5 -5 -19 -5 -13 0 -22 3 -19 7 4 8 30 6
38 -2z m-348 -21 c3 -4 -1 -5 -10 -4 -8 1 -18 5 -22 8 -3 4 1 5 10 4 8 -1 18
-5 22 -8z m286 -12 c3 3 8 1 12 -4 11 -18 -25 -8 -41 12 -18 21 -18 21 3 3 11
-9 23 -14 26 -11z m-365 -4 c-10 -10 -15 -21 -12 -24 3 -3 -5 -13 -17 -24
l-23 -19 19 23 c11 12 15 22 11 22 -4 0 0 9 10 20 10 11 20 20 23 20 3 0 -2
-8 -11 -18z m189 -27 c-1 -8 -5 -17 -8 -21 -4 -3 -5 2 -3 13 1 10 -5 27 -14
38 -16 20 -16 20 6 2 11 -10 20 -25 19 -32z m101 32 c0 -7 -9 -14 -20 -14 -19
-2 -19 -2 -1 12 11 8 19 15 20 15 0 0 1 -6 1 -13z m-246 -14 c13 -16 12 -17
-3 -4 -17 13 -22 21 -14 21 2 0 10 -8 17 -17z m-81 -7 c0 -2 -8 -10 -17 -17
-16 -13 -17 -12 -4 4 13 16 21 21 21 13z m330 -9 c0 -2 -10 -12 -22 -23 l-23
-19 19 23 c18 21 26 27 26 19z m-186 -16 c-8 -8 -34 -10 -38 -2 -3 4 6 7 19 7
14 0 22 -2 19 -5z m-197 -29 c-17 -18 -51 -27 -41 -10 3 5 9 6 14 3 4 -3 13 2
20 10 7 8 15 15 18 15 3 0 -2 -8 -11 -18z m120 1 c0 -9 -4 -10 -14 -2 -7 6
-13 12 -13 14 0 1 6 2 13 2 8 0 14 -6 14 -14z m31 -8 c-3 -3 -9 2 -12 12 -6
14 -5 15 5 6 7 -7 10 -15 7 -18z m97 15 c3 -6 -1 -7 -9 -4 -18 7 -21 14 -7 14
6 0 13 -4 16 -10z m-215 -14 c0 -2 -8 -10 -17 -17 -16 -13 -17 -12 -4 4 13 16
21 21 21 13z m-1145 -866 c-3 -5 -12 -10 -18 -10 -7 0 -6 4 3 10 19 12 23 12
15 0z m-35 -75 c0 -1 -10 -10 -22 -21 -14 -12 -18 -13 -10 -3 6 9 10 18 7 21
-3 2 2 5 10 5 8 0 15 -1 15 -2z m36 -27 c4 -7 3 -8 -5 -4 -6 4 -20 2 -29 -6
-15 -12 -16 -11 -3 5 16 20 27 22 37 5z m-86 -2 c0 -2 -8 -10 -17 -17 -16 -13
-17 -12 -4 4 13 16 21 21 21 13z m-103 -71 c0 -8 -3 -13 -5 -10 -3 3 -10 0
-17 -5 -8 -7 -12 -5 -12 5 0 8 4 12 8 9 4 -2 10 0 14 6 9 14 12 13 12 -5z
m135 -13 c8 -6 19 -8 23 -4 5 4 5 1 1 -6 -7 -11 -11 -11 -24 1 -10 8 -25 13
-34 12 -10 -2 -18 1 -18 6 0 12 34 6 52 -9z m-182 -6 c0 -2 -8 -10 -17 -17
-16 -13 -17 -12 -4 4 13 16 21 21 21 13z m40 -21 c-7 -9 -15 -13 -18 -10 -3 3
-12 -1 -21 -8 -14 -11 -14 -10 -2 5 7 10 17 16 21 13 5 -3 11 -1 15 5 3 5 9
10 12 10 3 0 0 -7 -7 -15z m147 -30 c0 -8 -4 -12 -9 -9 -5 4 -7 9 -4 12 3 3
-2 15 -11 26 -18 21 -18 21 3 3 11 -9 21 -24 21 -32z m-223 19 c3 -8 2 -12 -4
-9 -6 3 -10 10 -10 16 0 14 7 11 14 -7z m92 -12 c-17 -16 -18 -16 -5 5 7 12
15 20 18 17 3 -2 -3 -12 -13 -22z m-125 -5 c-10 -9 -11 -8 -5 6 3 10 9 15 12
12 3 -3 0 -11 -7 -18z m225 1 c3 -4 -1 -5 -10 -4 -8 1 -18 5 -22 8 -3 4 1 5
10 4 8 -1 18 -5 22 -8z m-126 -1 c0 -2 -8 -11 -18 -20 -15 -14 -19 -15 -19 -2
0 8 4 12 8 9 4 -2 10 0 14 6 6 10 15 14 15 7z m60 0 c0 -2 -10 -12 -22 -23
l-23 -19 19 23 c18 21 26 27 26 19z m-123 -24 c0 -9 -4 -10 -14 -2 -7 6 -13
12 -13 14 0 1 6 2 13 2 8 0 14 -6 14 -14z m154 0 c13 -16 12 -17 -3 -4 -10 7
-18 15 -18 17 0 8 8 3 21 -13z m-206 -13 c-3 -5 -12 -10 -18 -10 -7 0 -6 4 3
10 19 12 23 12 15 0z m115 -5 c-10 -12 -10 -18 1 -32 12 -17 12 -17 -6 -1 -15
14 -16 20 -5 32 7 9 15 16 17 16 3 0 0 -7 -7 -15z m-86 -14 c3 -5 -2 -15 -12
-22 -15 -12 -16 -12 -5 2 7 9 10 19 6 22 -3 4 -4 7 0 7 3 0 8 -4 11 -9z m232
-3 c3 -4 -1 -5 -10 -4 -8 1 -18 5 -22 8 -3 4 1 5 10 4 8 -1 18 -5 22 -8z
m-109 -15 c-4 -3 1 -16 10 -27 18 -21 18 -21 -4 -2 -20 16 -23 36 -6 36 4 0 3
-3 0 -7z m-100 -18 c0 -8 -3 -13 -5 -10 -3 3 -12 -1 -21 -7 -10 -8 -9 -4 3 10
23 26 23 26 23 7z m49 -7 c12 -14 13 -18 3 -10 -9 6 -18 10 -21 7 -2 -3 -5 2
-5 10 0 19 0 19 23 -7z m114 18 c0 -2 -8 -10 -17 -17 -16 -13 -17 -12 -4 4 13
16 21 21 21 13z m-222 -46 c-7 -10 -14 -17 -17 -15 -4 4 18 35 25 35 2 0 -1
-9 -8 -20z m161 -14 c-3 -3 -11 5 -18 17 -13 21 -12 21 5 5 10 -10 16 -20 13
-22z m85 26 c2 -4 -4 -8 -14 -8 -10 0 -16 4 -14 8 3 4 9 8 14 8 5 0 11 -4 14
-8z m-388 -17 c-1 -8 -5 -17 -8 -21 -5 -4 -4 16 1 34 3 9 9 -1 7 -13z m80 -5
c0 -12 -4 -16 -9 -11 -5 5 -6 14 -3 20 10 15 12 14 12 -9z m-45 -7 c13 -16 12
-17 -3 -4 -10 7 -18 15 -18 17 0 8 8 3 21 -13z m149 -8 c14 -19 14 -19 -2 -6
-10 7 -18 18 -18 24 0 6 1 8 3 6 1 -2 9 -13 17 -24z m66 -3 c-17 -16 -18 -16
-5 5 7 12 15 20 18 17 3 -2 -3 -12 -13 -22z m-80 -24 c12 -14 13 -18 3 -10 -9
6 -18 10 -21 7 -2 -3 -5 2 -5 10 0 19 0 19 23 -7z m111 7 c0 -8 -3 -13 -5 -10
-3 3 -12 -1 -21 -7 -10 -8 -9 -4 3 10 23 26 23 26 23 7z m-258 2 c-2 -2 -11
-8 -20 -15 -12 -9 -16 -9 -16 1 0 7 9 14 20 14 11 1 18 1 16 0z m78 -21 c18
-21 18 -21 -3 -3 -11 9 -23 14 -26 11 -3 -3 -8 -1 -12 4 -11 18 25 8 41 -12z
m267 12 c-3 -4 -9 -8 -15 -8 -5 0 -9 4 -9 8 0 5 7 9 15 9 8 0 12 -4 9 -9z
m-423 -15 c13 -16 12 -17 -3 -4 -10 7 -18 15 -18 17 0 8 8 3 21 -13z m89 3 c0
-2 -8 -10 -17 -17 -16 -13 -17 -12 -4 4 13 16 21 21 21 13z m190 -10 c-7 -7
-13 -7 -20 0 -6 6 -3 10 10 10 13 0 16 -4 10 -10z m-126 -25 c-2 -3 -12 3 -22
13 -16 17 -16 18 5 5 12 -7 20 -15 17 -18z m-100 3 c3 -8 2 -12 -4 -9 -6 3
-10 10 -10 16 0 14 7 11 14 -7z m56 12 c0 -2 -8 -10 -17 -17 -16 -13 -17 -12
-4 4 13 16 21 21 21 13z m285 -15 c3 -5 2 -12 -3 -15 -5 -3 -9 1 -9 9 0 17 3
19 12 6z m-190 -10 c-9 -8 -36 -10 -30 -2 2 4 11 8 20 8 8 0 13 -3 10 -6z
m161 -3 c3 -4 -1 -5 -10 -4 -8 1 -18 5 -22 8 -3 4 1 5 10 4 8 -1 18 -5 22 -8z
m-427 -11 c8 -10 7 -14 -2 -14 -8 0 -14 6 -14 14 0 7 1 13 2 13 2 0 8 -6 14
-13z m97 1 c5 4 6 3 2 -2 -4 -5 -3 -14 2 -21 7 -8 5 -12 -5 -12 -8 0 -13 3
-10 5 3 3 -3 15 -12 26 -14 15 -14 18 -2 8 9 -6 20 -8 25 -4z m252 3 c16 12
16 12 0 -6 -18 -19 -18 -19 -35 0 -17 18 -17 18 0 6 14 -11 20 -11 35 0z
m-207 -14 c-6 -8 -7 -18 -3 -22 4 -5 1 -5 -6 -1 -10 6 -10 11 -1 22 6 8 14 14
16 14 3 0 0 -6 -6 -13z m149 9 c0 -2 -8 -10 -17 -17 -16 -13 -17 -12 -4 4 13
16 21 21 21 13z m101 -13 c13 -16 12 -17 -3 -4 -17 13 -22 21 -14 21 2 0 10
-8 17 -17z m-291 -58 c-5 -7 -9 -14 -7 -16 1 -2 0 -3 -2 -2 -2 2 -9 -2 -16 -7
-8 -7 -12 -5 -12 5 0 7 5 13 11 12 6 -1 10 3 9 9 -1 6 5 11 12 11 10 0 12 -4
5 -12z m34 6 c3 -5 -2 -15 -12 -22 -15 -12 -16 -12 -5 2 7 9 10 19 6 22 -3 4
-4 7 0 7 3 0 8 -4 11 -9z m126 -6 c-5 -7 -9 -14 -7 -16 1 -2 0 -3 -2 -2 -2 2
-11 -3 -20 -9 -12 -10 -12 -7 2 8 9 11 15 23 12 26 -3 2 2 5 10 5 10 0 12 -4
5 -12z m50 10 c0 -1 -10 -10 -22 -21 -14 -12 -18 -13 -10 -3 6 9 10 18 7 21
-3 2 2 5 10 5 8 0 15 -1 15 -2z m-109 -22 c13 -16 12 -17 -3 -4 -10 7 -18 15
-18 17 0 8 8 3 21 -13z m138 4 c-2 -1 -13 -9 -24 -17 -19 -14 -19 -14 -6 3 7
9 18 17 24 17 6 0 8 -1 6 -3z m-158 -24 c13 -16 12 -17 -3 -4 -10 7 -18 15
-18 17 0 8 8 3 21 -13z m-68 -18 c-3 -9 -8 -14 -10 -11 -3 3 -2 9 2 15 9 16
15 13 8 -4z m48 -2 c13 -16 12 -17 -3 -4 -10 7 -18 15 -18 17 0 8 8 3 21 -13z
m112 2 c-3 -9 -8 -14 -10 -11 -3 3 -2 9 2 15 9 16 15 13 8 -4z m-132 -22 c13
-16 12 -17 -3 -4 -10 7 -18 15 -18 17 0 8 8 3 21 -13z m-15 -25 c12 -14 13
-18 3 -10 -9 6 -18 10 -21 7 -2 -3 -5 2 -5 10 0 19 0 19 23 -7z m5 -51 c-10
-9 -11 -8 -5 6 3 10 9 15 12 12 3 -3 0 -11 -7 -18z"/>
</g>
</svg>
